<svg width="30" height="35" viewBox="0 0 30 35" fill="none" xmlns="http://www.w3.org/2000/svg">
<path d="M0 17.5C0 18.3167 0.28 18.9233 0.84 19.32L12.09 28.07C12.37 28.3033 12.68 28.4317 13.02 28.455C13.36 28.4783 13.69 28.3967 14.01 28.21C14.31 28 14.55 27.72 14.73 27.37C14.91 27.02 15 26.6467 15 26.25V8.75C15 8.35333 14.91 7.98 14.73 7.63C14.55 7.28 14.31 7.01167 14.01 6.825C13.71 6.63833 13.38 6.55667 13.02 6.58C12.66 6.60333 12.35 6.72 12.09 6.93L0.84 15.68C0.28 16.1233 0 16.73 0 17.5ZM15 17.5C15 18.3167 15.28 18.9233 15.84 19.32L27.09 28.07C27.37 28.3033 27.68 28.4317 28.02 28.455C28.36 28.4783 28.69 28.3967 29.01 28.21C29.31 28 29.55 27.72 29.73 27.37C29.91 27.02 30 26.6467 30 26.25V8.75C30 8.35333 29.91 7.98 29.73 7.63C29.55 7.28 29.31 7.01167 29.01 6.825C28.71 6.63833 28.38 6.55667 28.02 6.58C27.66 6.60333 27.35 6.72 27.09 6.93L15.84 15.68C15.28 16.1233 15 16.73 15 17.5Z" fill="#F5F5F5"/>
</svg>
