<svg width="30" height="35" viewBox="0 0 30 35" fill="none" xmlns="http://www.w3.org/2000/svg">
<g clip-path="url(#clip0_19_6)">
<path d="M0 26.25C0 26.6467 0.09 27.0317 0.27 27.405C0.45 27.7783 0.69 28.0467 0.99 28.21C1.29 28.3967 1.62 28.4783 1.98 28.455C2.34 28.4317 2.65 28.315 2.91 28.105L14.16 19.355C14.72 18.9117 15 18.2933 15 17.5C15 16.7067 14.72 16.1117 14.16 15.715L2.91 6.965C2.63 6.73167 2.32 6.60333 1.98 6.58C1.64 6.55667 1.31 6.63833 0.99 6.825C0.69 7.01167 0.45 7.28 0.27 7.63C0.09 7.98 0 8.35333 0 8.75L0 26.25ZM15 26.25C15 26.6467 15.09 27.0317 15.27 27.405C15.45 27.7783 15.69 28.0467 15.99 28.21C16.29 28.3967 16.62 28.4783 16.98 28.455C17.34 28.4317 17.65 28.315 17.91 28.105L29.16 19.355C29.72 18.9117 30 18.2933 30 17.5C30 16.7067 29.72 16.1117 29.16 15.715L17.91 6.965C17.63 6.73167 17.32 6.60333 16.98 6.58C16.64 6.55667 16.31 6.63833 15.99 6.825C15.69 7.01167 15.45 7.28 15.27 7.63C15.09 7.98 15 8.35333 15 8.75V26.25Z" fill="#F5F5F5"/>
</g>
<defs>
<clipPath id="clip0_19_6">
<rect width="30" height="35" fill="white"/>
</clipPath>
</defs>
</svg>
